External Loads File
version=1
nRows=46
nColumns=13
Range=5.000000e-03-10 seconds
endheader
time 	forceRightX 	forceRightY 	forceRightZ 	pointRightX 	pointRightY 	pointRightZ 	forceLeftX 	forceLeftY 	forceLeftZ 	pointLeftX 	pointLeftY 	pointLeftZ 		
5.005000 41.163454 -65.387812 -0.000000 0.102937 0.376977 -0.158876 -28.432213 668.779149 -0.000000 0.382092 0.260954 -0.401305
5.010000 35.431322 -67.221394 -0.000000 0.107701 0.386828 -0.159068 -21.509998 685.786763 -0.000000 0.378479 0.251034 -0.401139
5.015000 27.040289 -70.193737 -0.000000 0.113212 0.396344 -0.159344 -13.182130 702.167680 -0.000000 0.374306 0.241415 -0.400965
5.020000 16.361219 -73.864718 -0.000000 0.119043 0.405380 -0.159558 -3.911378 717.915860 -0.000000 0.369575 0.232039 -0.400865
5.025000 3.738184 -77.809572 -0.000000 0.125689 0.414241 -0.159819 7.608444 733.036639 -0.000000 0.364256 0.222968 -0.400711
5.030000 -10.198496 -81.571479 -0.000000 0.132923 0.422721 -0.160030 20.679151 747.492050 -0.000000 0.358387 0.214296 -0.400594
5.035000 -24.846131 -84.790567 -0.000000 0.140518 0.430793 -0.160301 35.056774 761.214615 -0.000000 0.351976 0.206023 -0.400676
5.040000 -39.715036 -87.116941 -0.000000 0.148643 0.438501 -0.160553 51.263762 774.019234 -0.000000 0.345037 0.198142 -0.400537
5.045000 -54.261963 -88.197945 -0.000000 0.157123 0.445837 -0.160883 68.930988 785.657126 -0.000000 0.337610 0.190701 -0.400344
5.050000 -68.052091 -87.600859 -0.000000 0.166006 0.453000 -0.161112 88.206498 795.759917 -0.000000 0.329738 0.183811 -0.400309
5.055000 -80.639226 -84.898589 -0.000000 0.175205 0.459593 -0.161448 108.629835 803.939978 -0.000000 0.321458 0.177214 -0.400373
5.060000 -91.517432 -79.830736 -0.000000 0.184379 0.465179 -0.161950 128.447419 809.952147 -0.000000 0.312809 0.171218 -0.400448
5.065000 -100.748225 -71.606130 -0.000000 0.194736 0.470361 -0.161509 150.982892 812.668991 -0.000000 0.303846 0.165872 -0.400597
5.070000 -107.626746 -60.478754 -0.000000 0.204139 0.475009 -0.162308 171.127091 812.320655 -0.000000 0.294554 0.161169 -0.400727
5.075000 -112.212578 -45.839299 -0.000000 0.214285 0.478793 -0.162629 192.133399 807.687422 -0.000000 0.285037 0.157151 -0.400875
5.080000 -114.169313 -27.818006 -0.000000 0.224880 0.481889 -0.162596 213.216675 798.368939 -0.000000 0.275323 0.153684 -0.401048
5.085000 -113.203933 -7.178837 -0.000000 0.235073 0.484582 -0.162933 231.914546 784.717946 -0.000000 0.265464 0.150887 -0.401305
5.090000 -109.322272 15.442884 -0.000000 0.245572 0.486436 -0.163111 249.529982 766.322172 -0.000000 0.255416 0.148792 -0.401554
5.095000 -102.757194 38.614189 -0.000000 0.255557 0.487945 -0.163318 263.781907 743.976556 -0.000000 0.245285 0.147578 -0.401552
5.100000 -93.874250 61.399556 -0.000000 0.265922 0.488984 -0.163577 276.392443 717.175692 -0.000000 0.235098 0.147131 -0.401513
5.105000 -83.474206 82.425756 -0.000000 0.275552 0.489377 -0.163537 284.515597 686.908593 -0.000000 0.224995 0.147285 -0.401505
5.110000 -72.138456 101.241284 -0.000000 0.285181 0.489340 -0.163635 289.546584 652.233432 -0.000000 0.215010 0.148112 -0.401403
5.115000 -60.639530 117.460429 -0.000000 0.294474 0.488664 -0.163738 290.650835 612.640356 -0.000000 0.205232 0.149792 -0.401238
5.120000 -49.653494 131.034727 -0.000000 0.303454 0.487416 -0.163806 287.507501 567.141402 -0.000000 0.195735 0.152140 -0.400975
5.125000 -39.743600 142.132248 -0.000000 0.311997 0.485495 -0.163783 279.852992 514.748663 -0.000000 0.186489 0.155306 -0.400725
5.130000 -31.302725 151.103511 -0.000000 0.320282 0.483051 -0.163661 267.431398 454.891787 -0.000000 0.177592 0.159238 -0.400494
5.135000 -24.620379 158.443935 -0.000000 0.328080 0.479925 -0.163602 249.777265 387.951872 -0.000000 0.169085 0.163859 -0.400186
5.140000 -19.485158 164.860033 -0.000000 0.335774 0.475834 -0.163112 227.387792 314.798462 -0.000000 0.161003 0.169234 -0.400087
5.145000 -16.188246 171.144895 -0.000000 0.342712 0.471300 -0.162875 199.669927 238.217041 -0.000000 0.153419 0.175221 -0.399852
5.150000 -14.358461 178.345705 -0.000000 0.349151 0.466088 -0.162666 167.739631 160.825682 -0.000000 0.146325 0.181768 -0.399745
5.155000 -13.695011 187.595469 -0.000000 0.355268 0.460281 -0.162382 132.680008 85.784620 -0.000000 0.139768 0.188753 -0.399664
5.160000 -13.969556 200.001584 -0.000000 0.360566 0.453800 -0.162204 95.787299 16.234677 -0.000000 0.133667 0.196250 -0.399549
5.165000 -14.622618 216.537777 -0.000000 0.365590 0.446658 -0.161901 58.552458 -45.252441 -0.000000 0.128009 0.204095 -0.399383
5.170000 -15.054737 237.907394 -0.000000 0.370176 0.438303 -0.161357 22.251648 -96.525115 -0.000000 0.122786 0.212336 -0.399118
5.175000 -15.628531 264.388010 -0.000000 0.374130 0.429811 -0.160917 -11.437277 -136.046411 -0.000000 0.117839 0.220674 -0.398587
5.180000 -15.948870 295.873332 -0.000000 0.377763 0.420828 -0.160396 -41.030395 -163.340805 -0.000000 0.113628 0.229240 -0.398509
5.185000 -15.622964 331.791754 -0.000000 0.380748 0.411265 -0.159645 -65.277404 -178.745825 -0.000000 0.109826 0.238065 -0.398685
5.190000 -14.194249 371.158129 -0.000000 0.383485 0.401262 -0.159001 -83.302549 -183.384041 -0.000000 0.106396 0.247150 -0.398636
5.195000 -11.626609 412.690929 -0.000000 0.385532 0.390981 -0.159156 -94.505937 -179.071741 -0.000000 0.103332 0.256702 -0.398648
5.200000 -7.809508 455.037980 -0.000000 0.387316 0.380447 -0.159439 -98.906260 -167.888639 -0.000000 0.100581 0.266531 -0.398583
5.205000 -2.548482 496.942667 -0.000000 0.388634 0.369309 -0.159208 -97.023071 -151.867743 -0.000000 0.098277 0.276539 -0.398638
5.210000 3.854247 537.318101 -0.000000 0.389577 0.357978 -0.159251 -89.552783 -132.934021 -0.000000 0.096377 0.286829 -0.398561
5.215000 10.592653 575.316091 -0.000000 0.390021 0.346708 -0.159823 -77.366764 -112.745026 -0.000000 0.094999 0.297260 -0.398593
5.220000 17.857464 610.348800 -0.000000 0.390133 0.335365 -0.160135 -61.709454 -92.415169 -0.000000 0.094182 0.307787 -0.398754
5.225000 25.350499 642.089532 -0.000000 0.389720 0.323805 -0.160470 -43.708531 -72.836228 -0.000000 0.094045 0.318111 -0.399045
5.230000 33.302610 670.412884 -0.000000 0.388805 0.312286 -0.160357 -24.515429 -54.677773 -0.000000 0.094488 0.328519 -0.399469
